<mxfile host="app.diagrams.net" modified="2022-09-14T08:29:19.739Z" agent="5.0 (Windows NT 10.0; Win64; x64) AppleWebKit/537.36 (KHTML, like Gecko) Chrome/105.0.0.0 Safari/537.36" etag="yP_b6fxFQ6UADEHM8bOV" version="20.2.4" type="github">
  <diagram id="AobjY3eb068Dwps1Uj1f" name="第 1 页">
    <mxGraphModel dx="2062" dy="1114" grid="1" gridSize="10" guides="1" tooltips="1" connect="1" arrows="1" fold="1" page="1" pageScale="1" pageWidth="2339" pageHeight="3300" math="0" shadow="0">
      <root>
        <mxCell id="0" />
        <mxCell id="1" parent="0" />
        <mxCell id="BWPuHB-r5Ix1DyG-1JrD-68" style="edgeStyle=orthogonalEdgeStyle;rounded=0;orthogonalLoop=1;jettySize=auto;html=1;exitX=0.75;exitY=0;exitDx=0;exitDy=0;entryX=0.745;entryY=-0.039;entryDx=0;entryDy=0;entryPerimeter=0;curved=1;" edge="1" parent="1" source="BWPuHB-r5Ix1DyG-1JrD-32" target="BWPuHB-r5Ix1DyG-1JrD-22">
          <mxGeometry relative="1" as="geometry">
            <Array as="points">
              <mxPoint x="938" y="320" />
              <mxPoint x="1990" y="320" />
              <mxPoint x="1990" y="1197" />
            </Array>
          </mxGeometry>
        </mxCell>
        <mxCell id="BWPuHB-r5Ix1DyG-1JrD-32" value="" style="rounded=0;whiteSpace=wrap;html=1;fontSize=24;fillColor=none;dashed=1;strokeColor=#FF0000;strokeWidth=2;" vertex="1" parent="1">
          <mxGeometry x="750" y="417" width="250" height="390" as="geometry" />
        </mxCell>
        <mxCell id="BWPuHB-r5Ix1DyG-1JrD-2" value="" style="rounded=0;whiteSpace=wrap;html=1;fontSize=24;fillColor=none;dashed=1;strokeColor=#FF0000;strokeWidth=2;" vertex="1" parent="1">
          <mxGeometry x="1320" y="417" width="250" height="390" as="geometry" />
        </mxCell>
        <mxCell id="BWPuHB-r5Ix1DyG-1JrD-3" value="" style="rounded=0;whiteSpace=wrap;html=1;fontSize=24;fillColor=none;dashed=1;strokeColor=#FF0000;strokeWidth=2;" vertex="1" parent="1">
          <mxGeometry x="440" y="417" width="270" height="390" as="geometry" />
        </mxCell>
        <mxCell id="BWPuHB-r5Ix1DyG-1JrD-5" value="" style="endArrow=classic;html=1;rounded=0;fontSize=24;" edge="1" parent="1" source="BWPuHB-r5Ix1DyG-1JrD-14">
          <mxGeometry width="50" height="50" relative="1" as="geometry">
            <mxPoint x="780" y="917" as="sourcePoint" />
            <mxPoint x="1160" y="637" as="targetPoint" />
          </mxGeometry>
        </mxCell>
        <mxCell id="BWPuHB-r5Ix1DyG-1JrD-6" value="" style="endArrow=classic;html=1;rounded=0;fontSize=24;exitX=1;exitY=0.5;exitDx=0;exitDy=0;dashed=1;" edge="1" parent="1">
          <mxGeometry width="50" height="50" relative="1" as="geometry">
            <mxPoint x="410" y="637" as="sourcePoint" />
            <mxPoint x="1640" y="637" as="targetPoint" />
          </mxGeometry>
        </mxCell>
        <mxCell id="BWPuHB-r5Ix1DyG-1JrD-7" value="" style="rounded=0;whiteSpace=wrap;html=1;fontSize=24;" vertex="1" parent="1">
          <mxGeometry x="710" y="527" width="40" height="240" as="geometry" />
        </mxCell>
        <mxCell id="BWPuHB-r5Ix1DyG-1JrD-8" value="" style="rounded=0;whiteSpace=wrap;html=1;fontSize=24;" vertex="1" parent="1">
          <mxGeometry x="1000" y="527" width="40" height="240" as="geometry" />
        </mxCell>
        <mxCell id="BWPuHB-r5Ix1DyG-1JrD-9" value="" style="rounded=0;whiteSpace=wrap;html=1;fontSize=24;" vertex="1" parent="1">
          <mxGeometry x="1280" y="527" width="40" height="240" as="geometry" />
        </mxCell>
        <mxCell id="BWPuHB-r5Ix1DyG-1JrD-10" value="S0" style="text;html=1;strokeColor=none;fillColor=none;align=center;verticalAlign=middle;whiteSpace=wrap;rounded=0;fontSize=24;" vertex="1" parent="1">
          <mxGeometry x="540" y="427" width="60" height="30" as="geometry" />
        </mxCell>
        <mxCell id="BWPuHB-r5Ix1DyG-1JrD-11" value="S1" style="text;html=1;strokeColor=none;fillColor=none;align=center;verticalAlign=middle;whiteSpace=wrap;rounded=0;fontSize=24;" vertex="1" parent="1">
          <mxGeometry x="840" y="427" width="60" height="30" as="geometry" />
        </mxCell>
        <mxCell id="BWPuHB-r5Ix1DyG-1JrD-12" value="S2" style="text;html=1;strokeColor=none;fillColor=none;align=center;verticalAlign=middle;whiteSpace=wrap;rounded=0;fontSize=24;" vertex="1" parent="1">
          <mxGeometry x="1130" y="427" width="60" height="30" as="geometry" />
        </mxCell>
        <mxCell id="BWPuHB-r5Ix1DyG-1JrD-13" value="S3" style="text;html=1;strokeColor=none;fillColor=none;align=center;verticalAlign=middle;whiteSpace=wrap;rounded=0;fontSize=24;" vertex="1" parent="1">
          <mxGeometry x="1415" y="427" width="60" height="30" as="geometry" />
        </mxCell>
        <mxCell id="BWPuHB-r5Ix1DyG-1JrD-14" value="" style="html=1;whiteSpace=wrap;shape=isoCube2;backgroundOutline=1;isoAngle=15;fontSize=24;" vertex="1" parent="1">
          <mxGeometry x="620" y="907" width="130" height="130" as="geometry" />
        </mxCell>
        <mxCell id="BWPuHB-r5Ix1DyG-1JrD-15" value="TLB" style="text;html=1;strokeColor=none;fillColor=none;align=center;verticalAlign=middle;whiteSpace=wrap;rounded=0;fontSize=24;" vertex="1" parent="1">
          <mxGeometry x="650" y="1057" width="60" height="30" as="geometry" />
        </mxCell>
        <mxCell id="BWPuHB-r5Ix1DyG-1JrD-16" value="" style="edgeStyle=elbowEdgeStyle;elbow=horizontal;endArrow=classic;html=1;rounded=0;fontSize=24;exitX=0.5;exitY=0;exitDx=0;exitDy=0;entryX=0.5;entryY=0;entryDx=0;entryDy=0;entryPerimeter=0;" edge="1" parent="1" source="BWPuHB-r5Ix1DyG-1JrD-11" target="BWPuHB-r5Ix1DyG-1JrD-24">
          <mxGeometry width="50" height="50" relative="1" as="geometry">
            <mxPoint x="880" y="407" as="sourcePoint" />
            <mxPoint x="330" y="597" as="targetPoint" />
            <Array as="points">
              <mxPoint x="700" y="337" />
              <mxPoint x="340" y="437" />
            </Array>
          </mxGeometry>
        </mxCell>
        <mxCell id="BWPuHB-r5Ix1DyG-1JrD-17" value="" style="endArrow=classic;html=1;rounded=0;fontSize=24;" edge="1" parent="1" target="BWPuHB-r5Ix1DyG-1JrD-14">
          <mxGeometry width="50" height="50" relative="1" as="geometry">
            <mxPoint x="510" y="637" as="sourcePoint" />
            <mxPoint x="700" y="837" as="targetPoint" />
          </mxGeometry>
        </mxCell>
        <mxCell id="BWPuHB-r5Ix1DyG-1JrD-18" value="" style="endArrow=classic;html=1;rounded=0;fontSize=24;" edge="1" parent="1" source="BWPuHB-r5Ix1DyG-1JrD-14">
          <mxGeometry width="50" height="50" relative="1" as="geometry">
            <mxPoint x="760" y="917" as="sourcePoint" />
            <mxPoint x="890" y="637" as="targetPoint" />
          </mxGeometry>
        </mxCell>
        <mxCell id="BWPuHB-r5Ix1DyG-1JrD-19" value="Write Back" style="text;html=1;strokeColor=none;fillColor=none;align=center;verticalAlign=middle;whiteSpace=wrap;rounded=0;fontSize=24;" vertex="1" parent="1">
          <mxGeometry x="1700" y="562" width="160" height="150" as="geometry" />
        </mxCell>
        <mxCell id="BWPuHB-r5Ix1DyG-1JrD-20" value="FeedBack Fast(replay or not)" style="text;html=1;strokeColor=none;fillColor=none;align=center;verticalAlign=middle;whiteSpace=wrap;rounded=0;fontSize=24;" vertex="1" parent="1">
          <mxGeometry x="440" y="257" width="320" height="50" as="geometry" />
        </mxCell>
        <mxCell id="BWPuHB-r5Ix1DyG-1JrD-21" value="vaddr" style="text;html=1;strokeColor=none;fillColor=none;align=center;verticalAlign=middle;whiteSpace=wrap;rounded=0;fontSize=24;" vertex="1" parent="1">
          <mxGeometry x="500" y="840" width="60" height="30" as="geometry" />
        </mxCell>
        <mxCell id="BWPuHB-r5Ix1DyG-1JrD-24" value="" style="verticalLabelPosition=bottom;html=1;verticalAlign=top;align=center;strokeColor=#C73500;fillColor=#fa6800;shape=mxgraph.azure.queue_generic;pointerEvents=1;fontSize=24;fontColor=#000000;" vertex="1" parent="1">
          <mxGeometry x="180" y="591" width="225" height="92" as="geometry" />
        </mxCell>
        <mxCell id="BWPuHB-r5Ix1DyG-1JrD-25" value="Load RS" style="text;html=1;strokeColor=none;fillColor=none;align=center;verticalAlign=middle;whiteSpace=wrap;rounded=0;fontSize=24;" vertex="1" parent="1">
          <mxGeometry x="220" y="697" width="120" height="20" as="geometry" />
        </mxCell>
        <mxCell id="BWPuHB-r5Ix1DyG-1JrD-26" value="resp" style="text;html=1;strokeColor=none;fillColor=none;align=center;verticalAlign=middle;whiteSpace=wrap;rounded=0;fontSize=24;" vertex="1" parent="1">
          <mxGeometry x="820" y="750" width="60" height="30" as="geometry" />
        </mxCell>
        <mxCell id="BWPuHB-r5Ix1DyG-1JrD-27" value="PMP resp" style="text;html=1;strokeColor=none;fillColor=none;align=center;verticalAlign=middle;whiteSpace=wrap;rounded=0;fontSize=24;" vertex="1" parent="1">
          <mxGeometry x="850" y="847" width="140" height="30" as="geometry" />
        </mxCell>
        <mxCell id="BWPuHB-r5Ix1DyG-1JrD-28" value="" style="rounded=0;whiteSpace=wrap;html=1;fontSize=24;" vertex="1" parent="1">
          <mxGeometry x="580" y="307" width="20" height="60" as="geometry" />
        </mxCell>
        <mxCell id="BWPuHB-r5Ix1DyG-1JrD-33" value="" style="rounded=0;whiteSpace=wrap;html=1;fontSize=24;fillColor=none;dashed=1;strokeColor=#FF0000;strokeWidth=2;" vertex="1" parent="1">
          <mxGeometry x="1040" y="417" width="240" height="390" as="geometry" />
        </mxCell>
        <mxCell id="BWPuHB-r5Ix1DyG-1JrD-35" value="" style="outlineConnect=0;dashed=0;verticalLabelPosition=bottom;verticalAlign=top;align=center;html=1;shape=mxgraph.aws3.cache_node;fillColor=#2E73B8;gradientColor=none;" vertex="1" parent="1">
          <mxGeometry x="580.25" y="1180" width="209.5" height="140" as="geometry" />
        </mxCell>
        <mxCell id="BWPuHB-r5Ix1DyG-1JrD-36" value="" style="endArrow=classic;html=1;rounded=0;fontSize=24;" edge="1" parent="1" target="BWPuHB-r5Ix1DyG-1JrD-35">
          <mxGeometry width="50" height="50" relative="1" as="geometry">
            <mxPoint x="493" y="640" as="sourcePoint" />
            <mxPoint x="573" y="1260" as="targetPoint" />
          </mxGeometry>
        </mxCell>
        <mxCell id="BWPuHB-r5Ix1DyG-1JrD-41" value="" style="group" vertex="1" connectable="0" parent="1">
          <mxGeometry x="930" y="1169.5" width="180" height="161" as="geometry" />
        </mxCell>
        <mxCell id="BWPuHB-r5Ix1DyG-1JrD-39" value="" style="dashed=0;outlineConnect=0;html=1;align=center;labelPosition=center;verticalLabelPosition=bottom;verticalAlign=top;shape=mxgraph.weblogos.buffer;fillColor=#221F1F;strokeColor=none" vertex="1" parent="BWPuHB-r5Ix1DyG-1JrD-41">
          <mxGeometry x="15" width="150" height="118" as="geometry" />
        </mxCell>
        <mxCell id="BWPuHB-r5Ix1DyG-1JrD-40" value="Sbuffer" style="text;html=1;strokeColor=none;fillColor=none;align=center;verticalAlign=middle;whiteSpace=wrap;rounded=0;fontSize=24;" vertex="1" parent="BWPuHB-r5Ix1DyG-1JrD-41">
          <mxGeometry y="131" width="180" height="30" as="geometry" />
        </mxCell>
        <mxCell id="BWPuHB-r5Ix1DyG-1JrD-42" value="" style="group" vertex="1" connectable="0" parent="1">
          <mxGeometry x="1650" y="1200.5" width="415" height="127.5" as="geometry" />
        </mxCell>
        <mxCell id="BWPuHB-r5Ix1DyG-1JrD-22" value="" style="verticalLabelPosition=bottom;html=1;verticalAlign=top;align=center;strokeColor=#82b366;fillColor=#d5e8d4;shape=mxgraph.azure.queue_generic;pointerEvents=1;fontSize=24;" vertex="1" parent="BWPuHB-r5Ix1DyG-1JrD-42">
          <mxGeometry width="415" height="82" as="geometry" />
        </mxCell>
        <mxCell id="BWPuHB-r5Ix1DyG-1JrD-23" value="Load Queue" style="text;html=1;strokeColor=none;fillColor=none;align=center;verticalAlign=middle;whiteSpace=wrap;rounded=0;fontSize=24;" vertex="1" parent="BWPuHB-r5Ix1DyG-1JrD-42">
          <mxGeometry x="107" y="97.5" width="180" height="30" as="geometry" />
        </mxCell>
        <mxCell id="BWPuHB-r5Ix1DyG-1JrD-43" value="" style="group" vertex="1" connectable="0" parent="1">
          <mxGeometry x="1180" y="1199.25" width="415" height="130" as="geometry" />
        </mxCell>
        <mxCell id="BWPuHB-r5Ix1DyG-1JrD-37" value="" style="verticalLabelPosition=bottom;html=1;verticalAlign=top;align=center;strokeColor=none;fillColor=#00BEF2;shape=mxgraph.azure.queue_generic;pointerEvents=1;fontSize=24;" vertex="1" parent="BWPuHB-r5Ix1DyG-1JrD-43">
          <mxGeometry width="415" height="82" as="geometry" />
        </mxCell>
        <mxCell id="BWPuHB-r5Ix1DyG-1JrD-38" value="Store Queue" style="text;html=1;strokeColor=none;fillColor=none;align=center;verticalAlign=middle;whiteSpace=wrap;rounded=0;fontSize=24;" vertex="1" parent="BWPuHB-r5Ix1DyG-1JrD-43">
          <mxGeometry x="100" y="100" width="180" height="30" as="geometry" />
        </mxCell>
        <mxCell id="BWPuHB-r5Ix1DyG-1JrD-44" value="" style="edgeStyle=elbowEdgeStyle;elbow=horizontal;endArrow=classic;html=1;rounded=0;fontSize=24;exitX=0.5;exitY=0;exitDx=0;exitDy=0;entryX=0.333;entryY=-0.033;entryDx=0;entryDy=0;entryPerimeter=0;" edge="1" parent="1" source="BWPuHB-r5Ix1DyG-1JrD-33" target="BWPuHB-r5Ix1DyG-1JrD-24">
          <mxGeometry width="50" height="50" relative="1" as="geometry">
            <mxPoint x="880" y="437" as="sourcePoint" />
            <mxPoint x="302.5" y="601" as="targetPoint" />
            <Array as="points">
              <mxPoint x="710" y="210" />
              <mxPoint x="803" y="240" />
              <mxPoint x="713" y="260" />
              <mxPoint x="350" y="447" />
            </Array>
          </mxGeometry>
        </mxCell>
        <mxCell id="BWPuHB-r5Ix1DyG-1JrD-45" value="FeedBack Slow(replay or not)" style="text;html=1;strokeColor=none;fillColor=none;align=center;verticalAlign=middle;whiteSpace=wrap;rounded=0;fontSize=24;" vertex="1" parent="1">
          <mxGeometry x="550" y="130" width="320" height="50" as="geometry" />
        </mxCell>
        <mxCell id="BWPuHB-r5Ix1DyG-1JrD-46" value="" style="endArrow=classic;html=1;rounded=0;fontSize=24;exitX=0.25;exitY=1;exitDx=0;exitDy=0;" edge="1" parent="1" source="BWPuHB-r5Ix1DyG-1JrD-32" target="BWPuHB-r5Ix1DyG-1JrD-39">
          <mxGeometry width="50" height="50" relative="1" as="geometry">
            <mxPoint x="734.7761194029849" y="917" as="sourcePoint" />
            <mxPoint x="900" y="647" as="targetPoint" />
          </mxGeometry>
        </mxCell>
        <mxCell id="BWPuHB-r5Ix1DyG-1JrD-47" value="" style="endArrow=classic;html=1;rounded=0;fontSize=24;entryX=0.397;entryY=0.001;entryDx=0;entryDy=0;entryPerimeter=0;exitX=0.75;exitY=1;exitDx=0;exitDy=0;" edge="1" parent="1" source="BWPuHB-r5Ix1DyG-1JrD-32" target="BWPuHB-r5Ix1DyG-1JrD-37">
          <mxGeometry width="50" height="50" relative="1" as="geometry">
            <mxPoint x="870" y="650.0799999999999" as="sourcePoint" />
            <mxPoint x="1013.9570374902282" y="1179.5" as="targetPoint" />
          </mxGeometry>
        </mxCell>
        <mxCell id="BWPuHB-r5Ix1DyG-1JrD-48" value="forward" style="text;html=1;strokeColor=none;fillColor=none;align=center;verticalAlign=middle;whiteSpace=wrap;rounded=0;fontSize=24;" vertex="1" parent="1">
          <mxGeometry x="900" y="1000" width="140" height="30" as="geometry" />
        </mxCell>
        <mxCell id="BWPuHB-r5Ix1DyG-1JrD-49" value="forward" style="text;html=1;strokeColor=none;fillColor=none;align=center;verticalAlign=middle;whiteSpace=wrap;rounded=0;fontSize=24;" vertex="1" parent="1">
          <mxGeometry x="1150" y="1000" width="140" height="30" as="geometry" />
        </mxCell>
        <mxCell id="BWPuHB-r5Ix1DyG-1JrD-50" value="" style="endArrow=classic;html=1;rounded=0;fontSize=24;entryX=0.358;entryY=-0.006;entryDx=0;entryDy=0;entryPerimeter=0;exitX=0.883;exitY=1.008;exitDx=0;exitDy=0;exitPerimeter=0;startArrow=none;" edge="1" parent="1" source="BWPuHB-r5Ix1DyG-1JrD-51" target="BWPuHB-r5Ix1DyG-1JrD-22">
          <mxGeometry width="50" height="50" relative="1" as="geometry">
            <mxPoint x="947.5" y="817" as="sourcePoint" />
            <mxPoint x="1354.755" y="1209.3319999999999" as="targetPoint" />
          </mxGeometry>
        </mxCell>
        <mxCell id="BWPuHB-r5Ix1DyG-1JrD-52" value="" style="endArrow=classic;html=1;rounded=0;fontSize=24;" edge="1" parent="1" target="BWPuHB-r5Ix1DyG-1JrD-35">
          <mxGeometry width="50" height="50" relative="1" as="geometry">
            <mxPoint x="750" y="1010" as="sourcePoint" />
            <mxPoint x="900" y="647" as="targetPoint" />
          </mxGeometry>
        </mxCell>
        <mxCell id="BWPuHB-r5Ix1DyG-1JrD-53" value="resp" style="text;html=1;strokeColor=none;fillColor=none;align=center;verticalAlign=middle;whiteSpace=wrap;rounded=0;fontSize=24;" vertex="1" parent="1">
          <mxGeometry x="729.75" y="1070" width="60" height="30" as="geometry" />
        </mxCell>
        <mxCell id="BWPuHB-r5Ix1DyG-1JrD-54" value="vaddr" style="text;html=1;strokeColor=none;fillColor=none;align=center;verticalAlign=middle;whiteSpace=wrap;rounded=0;fontSize=24;" vertex="1" parent="1">
          <mxGeometry x="630" y="830" width="60" height="30" as="geometry" />
        </mxCell>
        <mxCell id="BWPuHB-r5Ix1DyG-1JrD-56" value="" style="endArrow=classic;html=1;rounded=0;fontSize=24;exitX=0.95;exitY=0.05;exitDx=0;exitDy=0;exitPerimeter=0;entryX=0.094;entryY=1.006;entryDx=0;entryDy=0;entryPerimeter=0;" edge="1" parent="1" source="BWPuHB-r5Ix1DyG-1JrD-35" target="BWPuHB-r5Ix1DyG-1JrD-33">
          <mxGeometry width="50" height="50" relative="1" as="geometry">
            <mxPoint x="760" y="1020" as="sourcePoint" />
            <mxPoint x="713.9583333333335" y="1190" as="targetPoint" />
          </mxGeometry>
        </mxCell>
        <mxCell id="BWPuHB-r5Ix1DyG-1JrD-57" value="resp" style="text;html=1;strokeColor=none;fillColor=none;align=center;verticalAlign=middle;whiteSpace=wrap;rounded=0;fontSize=24;" vertex="1" parent="1">
          <mxGeometry x="845" y="1080" width="60" height="30" as="geometry" />
        </mxCell>
        <mxCell id="BWPuHB-r5Ix1DyG-1JrD-58" value="" style="endArrow=classic;html=1;rounded=0;fontSize=24;entryX=0.25;entryY=1;entryDx=0;entryDy=0;" edge="1" parent="1" target="BWPuHB-r5Ix1DyG-1JrD-33">
          <mxGeometry width="50" height="50" relative="1" as="geometry">
            <mxPoint x="1040" y="1170" as="sourcePoint" />
            <mxPoint x="1000.9549228944247" y="1179.5" as="targetPoint" />
          </mxGeometry>
        </mxCell>
        <mxCell id="BWPuHB-r5Ix1DyG-1JrD-59" value="" style="endArrow=classic;html=1;rounded=0;fontSize=24;entryX=0.625;entryY=1.001;entryDx=0;entryDy=0;entryPerimeter=0;exitX=0.5;exitY=0;exitDx=0;exitDy=0;exitPerimeter=0;" edge="1" parent="1" source="BWPuHB-r5Ix1DyG-1JrD-37" target="BWPuHB-r5Ix1DyG-1JrD-33">
          <mxGeometry width="50" height="50" relative="1" as="geometry">
            <mxPoint x="1050" y="1180" as="sourcePoint" />
            <mxPoint x="1110" y="817" as="targetPoint" />
          </mxGeometry>
        </mxCell>
        <mxCell id="BWPuHB-r5Ix1DyG-1JrD-60" value="resp" style="text;html=1;strokeColor=none;fillColor=none;align=center;verticalAlign=middle;whiteSpace=wrap;rounded=0;fontSize=24;" vertex="1" parent="1">
          <mxGeometry x="1050" y="1080" width="60" height="30" as="geometry" />
        </mxCell>
        <mxCell id="BWPuHB-r5Ix1DyG-1JrD-61" value="resp" style="text;html=1;strokeColor=none;fillColor=none;align=center;verticalAlign=middle;whiteSpace=wrap;rounded=0;fontSize=24;" vertex="1" parent="1">
          <mxGeometry x="1340" y="1080" width="60" height="30" as="geometry" />
        </mxCell>
        <mxCell id="BWPuHB-r5Ix1DyG-1JrD-62" value="" style="endArrow=classic;html=1;rounded=0;fontSize=24;entryX=0.458;entryY=-0.006;entryDx=0;entryDy=0;entryPerimeter=0;exitX=0.819;exitY=1.008;exitDx=0;exitDy=0;exitPerimeter=0;" edge="1" parent="1" source="BWPuHB-r5Ix1DyG-1JrD-33" target="BWPuHB-r5Ix1DyG-1JrD-22">
          <mxGeometry width="50" height="50" relative="1" as="geometry">
            <mxPoint x="1397.5" y="1209.25" as="sourcePoint" />
            <mxPoint x="1200" y="817.3899999999999" as="targetPoint" />
          </mxGeometry>
        </mxCell>
        <mxCell id="BWPuHB-r5Ix1DyG-1JrD-51" value="ld-ld violation req" style="text;html=1;strokeColor=none;fillColor=none;align=center;verticalAlign=middle;whiteSpace=wrap;rounded=0;fontSize=24;" vertex="1" parent="1">
          <mxGeometry x="1330" y="1037" width="290" height="30" as="geometry" />
        </mxCell>
        <mxCell id="BWPuHB-r5Ix1DyG-1JrD-63" value="" style="endArrow=none;html=1;rounded=0;fontSize=24;entryX=0.358;entryY=-0.006;entryDx=0;entryDy=0;entryPerimeter=0;exitX=0.883;exitY=1.008;exitDx=0;exitDy=0;exitPerimeter=0;" edge="1" parent="1" source="BWPuHB-r5Ix1DyG-1JrD-32" target="BWPuHB-r5Ix1DyG-1JrD-51">
          <mxGeometry width="50" height="50" relative="1" as="geometry">
            <mxPoint x="970.75" y="810.1199999999999" as="sourcePoint" />
            <mxPoint x="1798.5700000000002" y="1200.0079999999998" as="targetPoint" />
          </mxGeometry>
        </mxCell>
        <mxCell id="BWPuHB-r5Ix1DyG-1JrD-64" value="write back load" style="text;html=1;strokeColor=none;fillColor=none;align=center;verticalAlign=middle;whiteSpace=wrap;rounded=0;fontSize=24;" vertex="1" parent="1">
          <mxGeometry x="1500" y="997" width="320" height="40" as="geometry" />
        </mxCell>
        <mxCell id="BWPuHB-r5Ix1DyG-1JrD-65" value="" style="endArrow=classic;html=1;rounded=0;fontSize=24;entryX=0.469;entryY=-0.03;entryDx=0;entryDy=0;entryPerimeter=0;exitX=0.5;exitY=1;exitDx=0;exitDy=0;" edge="1" parent="1" source="BWPuHB-r5Ix1DyG-1JrD-2" target="BWPuHB-r5Ix1DyG-1JrD-22">
          <mxGeometry width="50" height="50" relative="1" as="geometry">
            <mxPoint x="1246.56" y="820.1199999999999" as="sourcePoint" />
            <mxPoint x="1850.0700000000002" y="1210.0079999999998" as="targetPoint" />
          </mxGeometry>
        </mxCell>
        <mxCell id="BWPuHB-r5Ix1DyG-1JrD-66" value="" style="rounded=0;whiteSpace=wrap;html=1;fontSize=24;" vertex="1" parent="1">
          <mxGeometry x="680" y="190" width="20" height="60" as="geometry" />
        </mxCell>
        <mxCell id="BWPuHB-r5Ix1DyG-1JrD-69" value="write back paddr" style="text;html=1;strokeColor=none;fillColor=none;align=center;verticalAlign=middle;whiteSpace=wrap;rounded=0;fontSize=24;" vertex="1" parent="1">
          <mxGeometry x="1390" y="267" width="320" height="50" as="geometry" />
        </mxCell>
      </root>
    </mxGraphModel>
  </diagram>
</mxfile>
